<?xml version="1.0" standalone="no"?>
<!DOCTYPE svg PUBLIC "-//W3C//DTD SVG 20010904//EN"
 "http://www.w3.org/TR/2001/REC-SVG-20010904/DTD/svg10.dtd">
<svg version="1.0" xmlns="http://www.w3.org/2000/svg"
 width="1024.000000pt" height="1024.000000pt" viewBox="0 0 1024.000000 1024.000000"
 preserveAspectRatio="xMidYMid meet">
<metadata>
Created by potrace 1.14, written by Peter Selinger 2001-2017
</metadata>
<g transform="translate(0.000000,1024.000000) scale(0.100000,-0.100000)"
fill="#000000" stroke="none">
<path d="M5100 8808 c-52 -26 -158 -75 -235 -109 -148 -65 -246 -109 -462
-208 -154 -70 -365 -157 -478 -196 -148 -52 -422 -170 -447 -192 -16 -14 -18
-38 -18 -205 0 -177 -1 -188 -19 -188 -22 0 -67 -34 -83 -63 -9 -15 -13 -89
-13 -242 -1 -144 -6 -247 -15 -299 -14 -78 -14 -78 9 -97 31 -26 81 -24 122 4
55 37 61 56 56 204 -3 86 -1 135 6 142 6 6 26 11 44 11 46 0 53 -24 53 -176 0
-133 10 -173 51 -194 24 -14 78 2 103 29 15 16 15 45 7 297 -11 343 -16 363
-99 387 l-45 14 2 79 c1 83 11 184 17 184 2 0 27 -9 56 -21 29 -12 134 -49
233 -84 99 -34 245 -93 325 -130 80 -37 161 -73 180 -80 20 -7 107 -44 195
-82 224 -98 513 -219 556 -232 32 -10 43 -8 125 30 49 23 121 54 159 69 98 39
294 121 395 165 206 89 505 211 615 250 66 24 195 73 287 109 92 36 188 71
213 78 25 7 45 15 45 19 0 4 -30 17 -67 29 -38 12 -165 64 -283 115 -118 52
-287 123 -375 158 -88 36 -236 99 -330 142 -93 42 -233 103 -310 135 -126 52
-303 130 -409 181 -22 11 -47 18 -55 17 -9 -1 -59 -23 -111 -50z m222 -511
c58 -35 88 -82 88 -139 0 -52 -20 -110 -48 -141 -51 -57 -158 -68 -233 -24
-60 35 -90 34 -240 -8 -257 -71 -539 -117 -592 -96 -26 10 -28 14 -22 44 11
52 28 80 60 99 42 24 427 100 681 134 20 3 35 12 42 28 17 38 74 98 107 112
47 21 115 17 157 -9z m-1691 -766 c21 -18 22 -21 9 -34 -21 -21 -117 -29 -159
-14 -51 18 -49 34 6 51 68 21 116 20 144 -3z"/>
<path d="M4015 7413 c5 -164 12 -251 19 -256 6 -4 43 -17 81 -28 221 -65 443
-154 694 -279 246 -122 304 -143 401 -144 100 -1 156 18 370 128 96 49 205
104 241 123 103 52 417 156 553 183 l59 12 -7 162 c-3 88 -9 200 -13 248 l-6
87 -39 -20 c-22 -11 -155 -67 -296 -123 -142 -57 -340 -138 -442 -181 -212
-89 -348 -135 -403 -135 -42 0 -230 67 -447 160 -74 32 -232 97 -350 145 -118
48 -256 105 -307 126 -51 21 -97 39 -103 39 -9 0 -10 -65 -5 -247z"/>
<path d="M6036 6765 c-14 -13 -26 -28 -26 -33 0 -12 47 -53 101 -90 25 -17 64
-52 86 -78 l40 -47 255 2 256 2 52 -26 c66 -33 134 -96 168 -154 l27 -46 5
-1060 c3 -583 1 -1064 -3 -1070 -5 -6 -219 -12 -580 -17 -692 -8 -2989 0
-3000 11 -4 4 -6 489 -5 1077 l3 1069 27 50 c31 59 67 95 126 125 71 37 162
44 431 34 l243 -9 13 26 c23 43 94 100 172 136 40 18 73 37 73 41 0 4 -21 20
-47 37 -35 22 -58 29 -88 28 -22 -1 -209 -6 -415 -11 -346 -8 -380 -11 -444
-31 -120 -39 -196 -98 -266 -206 -21 -33 -48 -89 -60 -124 -21 -63 -21 -68
-20 -1151 0 -989 -1 -1088 -16 -1094 -8 -3 -48 -6 -87 -6 -40 0 -116 -3 -169
-7 l-98 -6 0 -151 c0 -328 40 -453 196 -613 55 -57 88 -81 155 -112 173 -83
-17 -76 2079 -74 1830 3 1866 3 1930 22 91 28 205 98 282 173 78 76 150 210
174 327 16 82 25 403 11 418 -5 4 -87 11 -183 14 -95 3 -176 8 -179 11 -4 3
-6 480 -6 1060 0 627 -4 1079 -10 1118 -22 151 -133 307 -262 370 -110 53
-158 60 -417 60 -157 0 -268 5 -334 15 -136 21 -158 19 -190 -10z m-1516
-2916 c54 -176 166 -272 338 -289 106 -11 717 -1 777 12 131 28 247 133 297
270 l21 58 426 1 c234 1 549 3 699 5 l272 3 0 -37 c-1 -78 -19 -173 -43 -224
-33 -73 -85 -121 -182 -169 l-81 -40 -1834 -2 -1835 -2 -83 39 c-154 73 -222
182 -222 354 l0 75 523 -4 c287 -3 596 -2 687 2 243 8 219 13 240 -52z m1130
53 c0 -4 -13 -28 -29 -53 -49 -77 -67 -82 -366 -91 -304 -9 -353 -3 -403 45
-30 28 -62 76 -62 91 0 7 180 11 568 14 160 1 292 -2 292 -6z"/>
<path d="M3440 3769 c-48 -29 -60 -47 -60 -92 0 -49 13 -73 50 -92 45 -23 93
-19 123 11 56 56 41 151 -28 180 -44 18 -43 18 -85 -7z"/>
<path d="M3719 3765 c-20 -13 -39 -31 -43 -40 -28 -73 27 -155 104 -155 34 0
48 6 75 33 46 46 52 78 25 122 -24 38 -65 65 -102 65 -13 0 -40 -11 -59 -25z"/>
<path d="M4011 3745 c-36 -41 -39 -67 -11 -112 29 -48 63 -67 106 -58 93 17
114 129 36 193 -9 6 -35 12 -58 12 -35 0 -47 -5 -73 -35z"/>
<path d="M6862 3750 c-41 -25 -56 -58 -48 -104 8 -44 50 -69 114 -69 51 0 89
30 98 79 7 40 -8 69 -49 94 -41 25 -74 25 -115 0z"/>
<path d="M4560 6493 c-63 -21 -92 -44 -144 -113 -79 -106 -77 -83 -82 -854 -2
-374 -5 -723 -5 -773 -2 -199 64 -300 207 -320 l47 -6 -7 57 c-5 40 -4 62 5
72 10 12 5 21 -29 52 -99 92 -92 207 16 274 43 27 -30 25 820 13 l532 -8 0
-143 0 -144 -446 0 -446 0 3 82 4 82 -202 1 -202 1 -7 -44 c-4 -24 -4 -90 0
-146 6 -88 4 -109 -12 -152 -40 -100 -40 -174 0 -174 44 0 165 113 175 162 7
34 18 29 26 -11 5 -24 25 -42 99 -91 51 -33 99 -59 108 -58 21 4 24 41 10 138
-14 94 -35 147 -25 65 5 -48 5 -49 -9 -25 -9 14 -15 46 -16 72 0 39 4 49 23
59 12 7 25 16 28 21 3 5 12 6 20 3 11 -4 13 -20 8 -78 -3 -39 -5 -73 -3 -75 4
-6 880 -10 937 -5 55 6 60 9 83 44 23 37 24 46 24 214 0 173 0 176 -22 185
-23 9 -23 9 -1 9 19 1 22 8 28 74 3 39 5 367 3 727 l-3 655 -23 38 c-32 55
-65 85 -119 109 -47 21 -57 21 -703 24 -566 2 -661 0 -700 -13z m1380 -19 c0
-2 -7 -4 -15 -4 -8 0 -15 4 -15 10 0 5 7 7 15 4 8 -4 15 -8 15 -10z m-1192
-120 c18 -5 22 -13 22 -48 0 -23 -4 -46 -9 -51 -12 -12 -19 -1061 -8 -1127 l8
-48 -94 0 -94 0 -6 88 c-4 48 -3 274 1 502 4 228 7 475 7 547 0 109 3 133 15
137 24 6 133 6 158 0z m1105 0 l77 -7 0 -107 c0 -112 -7 -170 -20 -170 -18 0
-214 197 -227 227 -23 57 -19 63 40 63 30 0 88 -3 130 -6z m-501 -184 c69 -19
137 -113 138 -189 0 -31 -1 -33 -27 -25 -16 4 -41 8 -58 8 -28 1 -30 -2 -37
-44 -3 -25 -7 -71 -7 -102 l-1 -57 -45 -7 c-93 -13 -113 6 -126 124 -7 61 -13
80 -35 103 -15 16 -31 26 -35 23 -14 -8 -31 35 -20 54 17 32 76 81 121 101 51
23 79 25 132 11z m-245 -306 c19 -4 21 -10 20 -78 -2 -67 1 -77 23 -101 31
-34 84 -60 132 -68 33 -5 44 -1 88 34 60 48 70 69 70 155 l0 64 76 0 77 0 -8
-92 c-7 -95 -18 -127 -64 -187 -33 -44 -107 -91 -143 -91 -27 0 -28 -1 -28
-55 l0 -55 -60 0 -60 0 0 55 c0 46 -3 55 -18 55 -35 0 -121 52 -155 93 -53 66
-65 96 -72 194 l-8 92 54 -5 c30 -3 64 -7 76 -10z m816 -676 c-1 -51 -2 -97
-3 -103 0 -12 -204 -14 -216 -3 -8 9 63 118 77 118 5 0 18 18 29 40 19 38 23
40 68 40 l48 0 -3 -92z m-1415 -90 c28 -5 52 -13 52 -17 0 -4 -18 -16 -40 -26
-22 -10 -45 -24 -52 -32 -6 -8 -25 -21 -42 -28 -17 -8 -42 -22 -55 -32 l-23
-17 7 45 c4 24 7 56 6 71 -1 22 2 26 21 22 13 -2 17 -2 10 2 -40 19 33 27 116
12z m715 -25 c-13 -2 -33 -2 -45 0 -13 2 -3 4 22 4 25 0 35 -2 23 -4z m420 -4
c-8 -8 -16 -8 -30 0 -16 9 -14 10 12 11 21 0 26 -3 18 -11z m-106 -5 c-7 -7
-128 -7 -135 1 -3 3 28 5 68 5 40 0 71 -3 67 -6z m456 -181 c-7 -2 -19 -2 -25
0 -7 3 -2 5 12 5 14 0 19 -2 13 -5z m-1129 -277 c16 -54 21 -106 11 -106 -16
0 -63 31 -69 45 -15 40 4 115 30 115 7 0 20 -24 28 -54z"/>
</g>
</svg>
